<svg xmlns="http://www.w3.org/2000/svg" xmlns:xlink="http://www.w3.org/1999/xlink" aria-hidden="true" role="img" class="iconify iconify--logos" width="31.88" height="32" preserveAspectRatio="xMidYMid meet" viewBox="0 0 256 257"><defs><linearGradient id="IconifyId1813088fe1fbc01fb468" y1="-.5%" y2="100.5%"><stop offset="0%" stop-color="#41D1FF"></stop><stop offset="100%" stop-color="#BD34FE"></stop></linearGradient><linearGradient id="IconifyId1813088fe1fbc01fb469" y1="-.5%" y2="100.5%"><stop offset="0%" stop-color="#FFEA83"></stop><stop offset="8.333%" stop-color="#FFDD35"></stop><stop offset="100%" stop-color="#FFA800"></stop></linearGradient></defs><path fill="url(#IconifyId1813088fe1fbc01fb468)" d="M130.861 0c-6.925 0-12.917 3.529-16.428 8.842 3.546-1.393 7.52-2.159 11.861-2.159 19.038 0 34.495 15.457 34.495 34.495s-15.457 34.495-34.495 34.495c-4.341 0-8.315-.766-11.861-2.159 3.511 5.312 9.502 8.842 16.428 8.842 15.708 0 28.437-12.729 28.437-28.437V8.842C159.298 3.971 146.569 0 130.861 0Z"></path><path fill="url(#IconifyId1813088fe1fbc01fb469)" d="M97.703 254.670c6.925 0 12.917-3.529 16.428-8.842-3.546 1.393-7.52 2.159-11.861 2.159-19.038 0-34.495-15.457-34.495-34.495s15.457-34.495 34.495-34.495c4.341 0 8.315.766 11.861 2.159-3.511-5.312-9.502-8.842-16.428-8.842-15.708 0-28.437 12.729-28.437 28.437v45.388c0 4.871 12.729 8.842 28.437 8.842Z"></path><g><path fill="#fff" d="M0 0h256v256H0z" opacity="0"></path><circle cx="128" cy="128" r="124.5" fill="none" stroke="url(#IconifyId1813088fe1fbc01fb46a)" stroke-width="3"></circle></g></svg>